<?xml version="1.0" encoding="utf-8"?>
<svg version="1.2" baseProfile="tiny-ps" xmlns="http://www.w3.org/2000/svg" xmlns:xlink="http://www.w3.org/1999/xlink" viewBox="0 0 500 500" width="100%" height="100%">
  <title>Company BIMI Logo</title>
  <defs>
    <!-- Piece 1 Gradient (Top Left) -->
    <linearGradient id="bimi-grad-topleft" x1="0%" y1="0%" x2="100%" y2="100%">
      <stop offset="0%" stop-color="#00A3FF" />
      <stop offset="50%" stop-color="#0072FF" />
      <stop offset="100%" stop-color="#0055FE" />
    </linearGradient>

    <!-- Piece 2 Gradient (Right Loop) -->
    <linearGradient id="bimi-grad-loop" x1="0%" y1="0%" x2="100%" y2="100%">
      <stop offset="0%" stop-color="#00D2FF" />
      <stop offset="50%" stop-color="#0085FF" />
      <stop offset="100%" stop-color="#0047EC" />
    </linearGradient>

    <!-- Piece 3 Gradient (Bottom Stem) -->
    <linearGradient id="bimi-grad-stem" x1="0%" y1="0%" x2="100%" y2="100%">
      <stop offset="0%" stop-color="#0056D6" />
      <stop offset="100%" stop-color="#0029A3" />
    </linearGradient>
  </defs>

  <!-- Puzzle Piece 1: Top-Left Stem -->
  <path d="M 133.28 45.39 C 130.93 45.39, 127.00 45.72, 123.86 45.78 C 120.72 45.84, 117.58 45.78, 114.44 45.78 C 111.30 45.78, 108.17 45.65, 105.03 45.78 C 101.89 45.91, 98.75 45.98, 95.61 46.57 C 92.47 47.16, 89.34 47.88, 86.2 49.32 C 83.06 50.76, 79.72 52.72, 76.78 55.2 C 73.84 57.68, 70.57 61.15, 68.54 64.22 C 66.51 67.29, 65.47 70.50, 64.62 73.64 C 63.77 76.78, 63.64 79.92, 63.44 83.06 C 63.24 86.20, 63.44 89.33, 63.44 92.47 C 63.44 95.61, 63.44 98.75, 63.44 101.89 C 63.44 105.03, 63.44 108.17, 63.44 111.31 C 63.44 114.45, 63.44 117.58, 63.44 120.72 C 63.44 123.86, 63.44 127.00, 63.44 130.14 C 63.44 133.28, 63.44 136.42, 63.44 139.56 C 63.44 142.70, 63.44 145.83, 63.44 148.97 C 63.44 152.11, 63.44 155.25, 63.44 158.39 C 63.44 161.53, 63.44 164.66, 63.44 167.8 C 63.44 170.94, 63.44 174.08, 63.44 177.22 C 63.44 180.36, 63.44 183.50, 63.44 186.64 C 63.44 189.78, 63.44 192.91, 63.44 196.05 C 63.44 199.19, 63.44 202.33, 63.44 205.47 C 63.44 208.61, 63.44 211.75, 63.44 214.89 C 63.44 218.03, 63.44 221.16, 63.44 224.3 C 63.44 227.44, 63.44 230.58, 63.44 233.72 C 63.44 236.86, 63.44 239.99, 63.44 243.13 C 63.44 246.27, 63.44 249.41, 63.44 252.55 C 63.44 255.69, 63.44 258.83, 63.44 261.97 C 63.44 265.11, 62.46 269.16, 63.44 271.38 C 64.42 273.60, 66.78 274.65, 69.33 275.31 C 71.88 275.97, 75.60 275.31, 78.74 275.31 C 81.88 275.31, 86.46 276.68, 88.16 275.31 C 89.86 273.94, 88.55 270.01, 88.94 267.07 C 89.33 264.13, 89.59 260.79, 90.51 257.65 C 91.43 254.51, 92.54 251.37, 94.44 248.23 C 96.34 245.09, 99.08 241.56, 101.89 238.82 C 104.70 236.07, 108.17 233.59, 111.31 231.76 C 114.45 229.93, 117.58 228.68, 120.72 227.83 C 123.86 226.98, 127.00 226.79, 130.14 226.66 C 133.28 226.53, 136.42 226.59, 139.56 227.05 C 142.70 227.51, 145.83 228.16, 148.97 229.4 C 152.11 230.64, 155.32 232.21, 158.39 234.5 C 161.46 236.79, 164.99 240.12, 167.41 243.13 C 169.83 246.14, 171.53 249.41, 172.9 252.55 C 174.27 255.69, 175.13 258.83, 175.65 261.97 C 176.17 265.11, 175.12 269.22, 176.04 271.38 C 176.95 273.54, 178.72 274.25, 181.14 274.91 C 183.56 275.57, 187.42 275.24, 190.56 275.31 C 193.70 275.38, 198.28 276.81, 199.98 275.31 C 201.68 273.81, 200.63 269.35, 200.76 266.28 C 200.89 263.21, 200.76 260.01, 200.76 256.87 C 200.76 253.73, 200.76 250.59, 200.76 247.45 C 200.76 244.31, 200.76 241.17, 200.76 238.03 C 200.76 234.89, 200.76 231.76, 200.76 228.62 C 200.76 225.48, 200.37 222.34, 200.76 219.2 C 201.15 216.06, 201.35 212.59, 203.11 209.78 C 204.88 206.97, 208.41 203.64, 211.35 202.33 C 214.29 201.02, 217.63 201.29, 220.77 201.94 C 223.91 202.59, 227.05 205.20, 230.19 206.25 C 233.33 207.30, 236.46 208.09, 239.6 208.22 C 242.74 208.35, 245.88 207.96, 249.02 207.04 C 252.16 206.12, 255.50 204.88, 258.44 202.72 C 261.38 200.56, 264.51 197.10, 266.67 194.09 C 268.83 191.08, 270.46 187.81, 271.38 184.67 C 272.30 181.53, 272.30 178.40, 272.17 175.26 C 272.04 172.12, 271.71 168.98, 270.6 165.84 C 269.49 162.70, 267.86 159.31, 265.5 156.43 C 263.14 153.55, 259.54 150.41, 256.47 148.58 C 253.40 146.75, 250.20 145.96, 247.06 145.44 C 243.92 144.92, 240.78 144.92, 237.64 145.44 C 234.50 145.96, 231.36 147.27, 228.22 148.58 C 225.08 149.89, 221.95 152.70, 218.81 153.29 C 215.67 153.88, 212.27 153.68, 209.39 152.11 C 206.51 150.54, 203.12 146.81, 201.55 143.87 C 199.98 140.93, 200.24 137.59, 199.98 134.45 C 199.72 131.31, 199.98 128.18, 199.98 125.04 C 199.98 121.90, 199.98 118.76, 199.98 115.62 C 199.98 112.48, 199.98 109.35, 199.98 106.21 C 199.98 103.07, 199.98 99.93, 199.98 96.79 C 199.98 93.65, 199.98 90.51, 199.98 87.37 C 199.98 84.23, 199.98 81.10, 199.98 77.96 C 199.98 74.82, 199.98 71.68, 199.98 68.54 C 199.98 65.40, 199.98 62.26, 199.98 59.12 C 199.98 55.98, 200.90 52.00, 199.98 49.71 C 199.06 47.42, 196.96 46.11, 194.48 45.39 C 192.00 44.67, 188.21 45.39, 185.07 45.39 C 181.93 45.39, 178.79 45.39, 175.65 45.39 C 172.51 45.39, 169.37 45.39, 166.23 45.39 C 163.09 45.39, 159.96 45.39, 156.82 45.39 C 153.68 45.39, 150.54 45.33, 147.4 45.39 C 144.26 45.45, 140.34 45.78, 137.99 45.78 C 135.64 45.78, 135.63 45.39, 133.28 45.39 Z" fill="url(#bimi-grad-topleft)" />

  <!-- Puzzle Piece 2: Right Loop -->
  <path d="M 247.45 45.0 C 245.55 45.00, 241.17 45.33, 238.03 45.39 C 234.89 45.45, 231.76 45.39, 228.62 45.39 C 225.48 45.39, 221.55 44.61, 219.2 45.39 C 216.84 46.17, 215.28 47.75, 214.49 50.1 C 213.71 52.45, 214.49 56.38, 214.49 59.52 C 214.49 62.66, 214.49 65.79, 214.49 68.93 C 214.49 72.07, 214.49 75.21, 214.49 78.35 C 214.49 81.49, 214.49 84.63, 214.49 87.77 C 214.49 90.91, 214.49 94.04, 214.49 97.18 C 214.49 100.32, 214.49 103.46, 214.49 106.6 C 214.49 109.74, 214.49 112.87, 214.49 116.01 C 214.49 119.15, 214.49 122.29, 214.49 125.43 C 214.49 128.57, 213.38 132.89, 214.49 134.85 C 215.60 136.81, 218.48 137.46, 221.16 137.2 C 223.84 136.94, 227.44 134.26, 230.58 133.28 C 233.72 132.30, 236.86 131.58, 240.0 131.32 C 243.14 131.06, 246.27 131.19, 249.41 131.71 C 252.55 132.23, 255.69 133.14, 258.83 134.45 C 261.97 135.76, 265.23 137.27, 268.24 139.56 C 271.25 141.85, 274.46 145.18, 276.88 148.19 C 279.30 151.20, 281.26 154.46, 282.76 157.6 C 284.26 160.74, 285.25 163.88, 285.9 167.02 C 286.55 170.16, 286.68 173.30, 286.68 176.44 C 286.68 179.58, 286.62 182.71, 285.9 185.85 C 285.18 188.99, 283.94 192.13, 282.37 195.27 C 280.80 198.41, 278.97 201.61, 276.48 204.68 C 274.00 207.75, 270.53 211.29, 267.46 213.71 C 264.39 216.13, 261.18 217.83, 258.04 219.2 C 254.90 220.57, 251.77 221.36, 248.63 221.95 C 245.49 222.54, 242.35 222.86, 239.21 222.73 C 236.07 222.60, 232.93 222.14, 229.79 221.16 C 226.65 220.18, 222.93 216.85, 220.38 216.85 C 217.83 216.85, 215.47 218.87, 214.49 221.16 C 213.51 223.45, 214.49 227.44, 214.49 230.58 C 214.49 233.72, 214.49 236.86, 214.49 240.0 C 214.49 243.14, 214.49 246.27, 214.49 249.41 C 214.49 252.55, 214.49 255.69, 214.49 258.83 C 214.49 261.97, 214.49 265.10, 214.49 268.24 C 214.49 271.38, 214.49 274.52, 214.49 277.66 C 214.49 280.80, 214.49 283.94, 214.49 287.08 C 214.49 290.22, 214.49 293.35, 214.49 296.49 C 214.49 299.63, 214.49 302.77, 214.49 305.91 C 214.49 309.05, 214.49 312.19, 214.49 315.33 C 214.49 318.47, 214.49 321.60, 214.49 324.74 C 214.49 327.88, 213.97 331.54, 214.49 334.16 C 215.01 336.78, 215.54 339.39, 217.63 340.44 C 219.72 341.49, 223.91 340.44, 227.05 340.44 C 230.19 340.44, 233.32 340.44, 236.46 340.44 C 239.60 340.44, 242.74 340.44, 245.88 340.44 C 249.02 340.44, 252.16 340.38, 255.3 340.44 C 258.44 340.50, 261.57 340.83, 264.71 340.83 C 267.85 340.83, 270.99 340.50, 274.13 340.44 C 277.27 340.38, 280.41 340.44, 283.55 340.44 C 286.69 340.44, 289.82 340.44, 292.96 340.44 C 296.10 340.44, 299.24 340.57, 302.38 340.44 C 305.52 340.31, 308.65 340.04, 311.79 339.65 C 314.93 339.26, 318.07 338.67, 321.21 338.08 C 324.35 337.49, 327.49 336.90, 330.63 336.12 C 333.77 335.34, 336.90 334.42, 340.04 333.37 C 343.18 332.32, 346.32 331.15, 349.46 329.84 C 352.60 328.53, 355.74 327.10, 358.88 325.53 C 362.02 323.96, 365.15 322.33, 368.29 320.43 C 371.43 318.53, 374.57 316.50, 377.71 314.15 C 380.85 311.79, 383.98 309.11, 387.12 306.3 C 390.26 303.49, 393.66 300.35, 396.54 297.28 C 399.42 294.21, 401.97 291.00, 404.39 287.86 C 406.81 284.72, 408.97 281.58, 411.06 278.44 C 413.15 275.30, 415.18 272.17, 416.94 269.03 C 418.70 265.89, 420.14 262.75, 421.65 259.61 C 423.15 256.47, 424.66 253.34, 425.97 250.2 C 427.28 247.06, 428.45 243.92, 429.5 240.78 C 430.55 237.64, 431.46 234.50, 432.24 231.36 C 433.02 228.22, 433.69 225.09, 434.21 221.95 C 434.73 218.81, 435.05 215.67, 435.38 212.53 C 435.71 209.39, 436.04 206.25, 436.17 203.11 C 436.30 199.97, 436.30 196.84, 436.17 193.7 C 436.04 190.56, 435.77 187.42, 435.38 184.28 C 434.99 181.14, 434.40 178.01, 433.81 174.87 C 433.22 171.73, 432.57 168.59, 431.85 165.45 C 431.13 162.31, 430.42 159.17, 429.5 156.03 C 428.58 152.89, 427.54 149.76, 426.36 146.62 C 425.18 143.48, 423.88 140.34, 422.44 137.2 C 421.00 134.06, 419.37 130.92, 417.73 127.78 C 416.10 124.64, 414.59 121.51, 412.63 118.37 C 410.67 115.23, 408.25 112.09, 405.96 108.95 C 403.67 105.81, 401.44 102.68, 398.89 99.54 C 396.34 96.40, 393.60 93.19, 390.66 90.12 C 387.72 87.05, 384.38 83.91, 381.24 81.1 C 378.10 78.29, 374.96 75.67, 371.82 73.25 C 368.68 70.83, 365.55 68.61, 362.41 66.58 C 359.27 64.55, 356.13 62.79, 352.99 61.09 C 349.85 59.39, 346.71 57.82, 343.57 56.38 C 340.43 54.94, 337.30 53.63, 334.16 52.45 C 331.02 51.27, 327.88 50.17, 324.74 49.32 C 321.60 48.47, 318.47 47.87, 315.33 47.35 C 312.19 46.83, 309.05 46.51, 305.91 46.18 C 302.77 45.85, 299.63 45.59, 296.49 45.39 C 293.35 45.19, 290.22 45.06, 287.08 45.0 C 283.94 44.94, 280.80 44.94, 277.66 45.0 C 274.52 45.06, 271.38 45.33, 268.24 45.39 C 265.10 45.45, 261.97 45.39, 258.83 45.39 C 255.69 45.39, 251.31 45.45, 249.41 45.39 C 247.51 45.33, 249.35 45.00, 247.45 45.0 Z" fill="url(#bimi-grad-loop)" />

  <!-- Puzzle Piece 3: Bottom Stem -->
  <path d="M 129.75 240.0 C 128.05 240.33, 124.52 240.98, 121.9 241.96 C 119.28 242.94, 116.53 243.98, 114.05 245.88 C 111.56 247.78, 108.75 250.78, 106.99 253.33 C 105.22 255.88, 104.18 258.56, 103.46 261.18 C 102.74 263.80, 102.61 266.41, 102.67 269.03 C 102.73 271.65, 104.11 274.26, 103.85 276.88 C 103.59 279.50, 102.88 282.83, 101.11 284.72 C 99.34 286.62, 95.88 287.60, 93.26 288.25 C 90.64 288.90, 88.03 288.65, 85.41 288.65 C 82.79 288.65, 80.17 288.25, 77.56 288.25 C 74.95 288.25, 72.07 288.32, 69.72 288.65 C 67.37 288.98, 64.49 288.65, 63.44 290.22 C 62.39 291.79, 63.44 295.44, 63.44 298.06 C 63.44 300.68, 63.44 303.29, 63.44 305.91 C 63.44 308.53, 63.44 311.14, 63.44 313.76 C 63.44 316.38, 63.44 318.99, 63.44 321.6 C 63.44 324.22, 63.44 326.83, 63.44 329.45 C 63.44 332.07, 63.44 334.69, 63.44 337.3 C 63.44 339.92, 63.44 342.52, 63.44 345.14 C 63.44 347.75, 63.44 350.37, 63.44 352.99 C 63.44 355.61, 63.44 358.22, 63.44 360.84 C 63.44 363.45, 63.44 366.06, 63.44 368.68 C 63.44 371.30, 63.44 373.91, 63.44 376.53 C 63.44 379.15, 63.44 381.76, 63.44 384.38 C 63.44 387.00, 63.44 389.61, 63.44 392.22 C 63.44 394.84, 63.44 397.45, 63.44 400.07 C 63.44 402.69, 63.44 405.30, 63.44 407.92 C 63.44 410.54, 63.44 413.15, 63.44 415.77 C 63.44 418.38, 63.44 421.00, 63.44 423.61 C 63.44 426.23, 63.38 428.84, 63.44 431.46 C 63.50 434.08, 63.18 436.69, 63.83 439.31 C 64.48 441.93, 65.53 444.86, 67.36 447.15 C 69.19 449.44, 72.27 451.80, 74.82 453.04 C 77.37 454.28, 80.06 454.68, 82.67 454.61 C 85.28 454.55, 87.90 453.70, 90.51 452.65 C 93.12 451.60, 95.74 449.83, 98.36 448.33 C 100.98 446.82, 103.59 445.19, 106.21 443.62 C 108.82 442.05, 111.44 440.48, 114.05 438.91 C 116.66 437.34, 119.28 435.78, 121.9 434.21 C 124.52 432.64, 127.14 431.07, 129.75 429.5 C 132.37 427.93, 134.97 426.36, 137.59 424.79 C 140.21 423.22, 142.82 421.65, 145.44 420.08 C 148.06 418.51, 150.67 416.94, 153.29 415.37 C 155.91 413.80, 158.51 412.24, 161.13 410.67 C 163.75 409.10, 166.36 407.59, 168.98 405.96 C 171.60 404.32, 174.22 402.50, 176.83 400.86 C 179.45 399.23, 182.05 397.98, 184.67 396.15 C 187.28 394.32, 190.30 392.23, 192.52 389.87 C 194.74 387.51, 196.70 384.63, 198.01 382.02 C 199.32 379.40, 199.91 376.80, 200.37 374.18 C 200.83 371.56, 200.69 368.95, 200.76 366.33 C 200.82 363.71, 200.76 361.10, 200.76 358.48 C 200.76 355.87, 200.76 353.25, 200.76 350.64 C 200.76 348.02, 200.76 345.41, 200.76 342.79 C 200.76 340.17, 200.76 337.56, 200.76 334.94 C 200.76 332.32, 200.76 329.72, 200.76 327.1 C 200.76 324.49, 200.69 321.87, 200.76 319.25 C 200.82 316.63, 201.15 314.01, 201.15 311.4 C 201.15 308.78, 200.76 306.18, 200.76 303.56 C 200.76 300.94, 201.22 298.19, 201.15 295.71 C 201.09 293.22, 201.81 289.89, 200.37 288.65 C 198.93 287.41, 195.14 288.32, 192.52 288.25 C 189.90 288.18, 187.28 288.18, 184.67 288.25 C 182.05 288.32, 179.45 288.71, 176.83 288.65 C 174.22 288.58, 171.40 289.04, 168.98 287.86 C 166.56 286.68, 163.49 283.93, 162.31 281.58 C 161.13 279.23, 161.92 276.36, 161.92 273.74 C 161.92 271.12, 162.51 268.51, 162.31 265.89 C 162.11 263.27, 161.85 260.66, 160.74 258.04 C 159.63 255.43, 157.80 252.55, 155.64 250.2 C 153.48 247.85, 150.41 245.49, 147.79 243.92 C 145.17 242.35, 142.56 241.43, 139.95 240.78 C 137.33 240.13, 133.80 240.13, 132.1 240.0 C 130.40 239.87, 131.45 239.67, 129.75 240.0 Z" fill="url(#bimi-grad-stem)" />
</svg>
